<?xml version="1.0" standalone="no"?>
<!DOCTYPE svg PUBLIC "-//W3C//DTD SVG 20010904//EN"
 "http://www.w3.org/TR/2001/REC-SVG-20010904/DTD/svg10.dtd">
<svg version="1.0" xmlns="http://www.w3.org/2000/svg"
 width="1006.000000pt" height="1006.000000pt" viewBox="0 0 1006.000000 1006.000000"
 preserveAspectRatio="xMidYMid meet">

<g transform="translate(0.000000,1006.000000) scale(0.100000,-0.100000)"
fill="#000000" stroke="none">
<path d="M4475 8586 c-294 -56 -577 -193 -900 -436 -174 -131 -298 -245 -631
-581 -409 -414 -655 -680 -1384 -1494 -216 -242 -462 -514 -545 -605 -218
-239 -218 -238 -169 -287 30 -30 12 -32 299 36 772 183 1715 337 2830 460 474
53 1745 175 1750 169 1 -2 5 -58 9 -125 l7 -123 -24 0 c-42 0 -56 -28 -63
-128 l-7 -91 -201 -134 c-224 -149 -436 -306 -629 -465 -160 -132 -191 -165
-182 -201 10 -39 22 -49 78 -61 225 -48 478 -28 783 60 58 17 107 30 109 28 2
-2 -22 -478 -52 -1057 -36 -675 -52 -1064 -47 -1080 7 -19 20 -29 48 -36 l38
-9 -7 -76 c-18 -208 -56 -609 -61 -635 -8 -44 22 -78 66 -77 66 2 68 9 100
328 43 429 77 887 100 1368 6 114 17 269 25 343 24 213 54 612 60 803 9 266
-23 225 243 313 125 42 269 84 321 95 l93 20 -29 -31 c-384 -408 -473 -509
-473 -538 0 -35 31 -69 64 -69 55 0 471 152 680 249 49 23 90 40 92 38 2 -2
-17 -39 -43 -83 -50 -85 -57 -122 -28 -154 37 -41 60 -29 306 159 l234 179 5
-43 c6 -46 21 -71 49 -80 10 -3 159 37 332 89 172 52 315 93 317 91 2 -1 -15
-96 -38 -210 -40 -209 -128 -729 -152 -905 l-13 -95 -90 -32 c-50 -18 -189
-65 -310 -103 -239 -77 -261 -90 -251 -145 9 -42 33 -58 81 -51 22 3 154 43
293 89 203 68 252 81 252 68 0 -9 -9 -86 -20 -171 -53 -416 -120 -1241 -120
-1476 0 -81 15 -104 68 -104 61 0 67 20 80 286 29 541 123 1511 149 1534 5 4
112 46 238 95 254 97 558 225 795 334 261 121 245 111 248 152 3 30 -2 41 -24
58 -15 11 -34 21 -42 21 -8 0 -99 -39 -201 -86 -317 -147 -985 -423 -996 -412
-9 9 94 624 172 1021 35 179 44 245 37 265 -19 55 -36 52 -380 -51 -175 -53
-319 -95 -320 -94 -1 1 2 29 8 62 10 68 2 95 -36 120 -32 21 -35 19 -211 -115
-175 -133 -174 -133 -147 -86 27 45 28 77 5 104 -31 36 -54 34 -133 -9 -177
-95 -409 -202 -578 -266 l-64 -24 29 34 c15 19 114 126 220 239 105 112 192
213 193 223 4 36 0 53 -16 69 -44 44 -311 -8 -656 -128 -100 -35 -191 -67
-200 -71 -17 -7 -18 9 -18 251 l0 259 118 67 c351 199 758 387 1124 518 79 29
151 61 161 72 22 26 22 71 -1 91 -24 22 -49 22 -341 -8 -555 -56 -1086 -102
-1091 -94 -3 4 -11 79 -18 166 -37 468 -149 1233 -232 1578 -96 403 -245 620
-514 750 -146 71 -216 87 -396 91 -102 2 -179 -1 -225 -10z m320 -121 c107
-19 212 -61 308 -125 257 -169 381 -447 462 -1035 14 -104 39 -284 55 -400 43
-310 105 -903 95 -913 -1 -1 -195 -20 -431 -42 -1279 -118 -2026 -206 -2804
-330 -425 -68 -992 -177 -1295 -249 -44 -11 -81 -18 -82 -17 -2 2 821 898
1557 1696 597 647 809 853 1078 1053 262 194 527 323 732 357 41 6 82 13 90
15 43 8 158 3 235 -10z m1815 -2576 c-149 -65 -487 -232 -615 -303 -54 -31
-102 -56 -106 -56 -8 0 -22 321 -14 328 6 6 742 78 815 80 28 1 13 -8 -80 -49z
m-982 -912 l-12 -226 -65 -20 c-215 -65 -343 -89 -516 -97 -188 -9 -188 -8
-32 117 212 170 623 466 633 456 2 -2 -2 -105 -8 -230z"/>
</g>
</svg>
